<?xml version="1.0" standalone="no"?><!DOCTYPE svg PUBLIC "-//W3C//DTD SVG 1.1//EN" "http://www.w3.org/Graphics/SVG/1.1/DTD/svg11.dtd"><svg t="1612343886977" class="icon" viewBox="0 0 1024 1024" version="1.1" xmlns="http://www.w3.org/2000/svg" p-id="6600" xmlns:xlink="http://www.w3.org/1999/xlink" width="200" height="200"><defs><style type="text/css"></style></defs><path d="M487.912727 326.4a28.974545 28.974545 0 0 1-20.596363-8.494545l-244.363637-244.363637a29.090909 29.090909 0 0 1 41.192728-41.192727l244.363636 244.363636a29.090909 29.090909 0 0 1-20.596364 49.687273z" fill="" p-id="6601"></path><path d="M522.938182 326.4a29.090909 29.090909 0 0 1-20.596364-49.687273l244.363637-244.363636a29.090909 29.090909 0 0 1 41.192727 41.192727l-244.363637 244.363637a28.974545 28.974545 0 0 1-20.596363 8.494545z" fill="" p-id="6602"></path><path d="M837.818182 370.967273H173.149091a29.090909 29.090909 0 0 1 0-58.181818H837.818182a29.090909 29.090909 0 0 1 0 58.181818zM837.818182 720.756364H173.149091a29.090909 29.090909 0 0 1 0-58.181819H837.818182a29.090909 29.090909 0 0 1 0 58.181819z" fill="" p-id="6603"></path><path d="M505.483636 1000.727273a29.090909 29.090909 0 0 1-29.090909-29.090909V341.876364a29.090909 29.090909 0 0 1 58.181818 0V971.636364a29.090909 29.090909 0 0 1-29.090909 29.090909z" fill="" p-id="6604"></path></svg>