<?xml version="1.0" standalone="no"?><!DOCTYPE svg PUBLIC "-//W3C//DTD SVG 1.1//EN"
        "http://www.w3.org/Graphics/SVG/1.1/DTD/svg11.dtd">
<svg t="1612509699935" class="icon" viewBox="0 0 1024 1024" version="1.1" xmlns="http://www.w3.org/2000/svg" p-id="6549"
     xmlns:xlink="http://www.w3.org/1999/xlink" width="200" height="200">
    <defs>
        <style type="text/css"></style>
    </defs>
    <path d="M38.164 558.029V977.93c0 33.014 51.2 33.014 51.2 0V558.03c0-33.014-51.2-33.014-51.2 0zM327.393 420.7v557.23c0 33.014 51.2 33.014 51.2 0V420.7c0-33.019-51.2-33.019-51.2 0zM629.212 558.029V977.93c0 33.014 51.2 33.014 51.2 0V558.03c0-33.014-51.2-33.014-51.2 0z"
          p-id="6550" fill="#2c2c2c"></path>
    <path d="M936.93 420.7v557.23c0 33.014 51.2 33.014 51.2 0V420.7c0-33.019-51.2-33.019-51.2 0z m-855.066-6.118l277.278-277.279H322.94a3783294.6 3783294.6 0 0 1 286.658 286.7c9.862 9.86 26.343 9.86 36.194 0 99.686-99.677 199.357-199.353 299.028-299.029 23.363-23.368-12.836-59.571-36.198-36.203a5488409.098 5488409.098 0 0 0-299.024 299.028h36.194l-286.654-286.7c-9.86-9.86-26.342-9.86-36.203 0L45.655 378.38c-23.363 23.367 12.841 59.57 36.209 36.203z"
          p-id="6551" fill="#2c2c2c"></path>
    <path d="M779.07 87.373h190.207l-25.6-25.6v178.703c0 33.019 51.2 33.019 51.2 0V61.773c0-13.957-11.637-25.6-25.6-25.6H779.07c-33.013 0-33.013 51.2 0 51.2z"
          p-id="6552" fill="#2c2c2c"></path>
</svg>